<svg xmlns="http://www.w3.org/2000/svg" width="512" height="512" viewBox="0 0 512 512" version="1.1"><path d="M 223.564 1.625 C 189.116 6.037, 148.947 20.301, 120.811 38.112 C 88.146 58.791, 58.791 88.146, 38.112 120.811 C 24.679 142.030, 11.372 174.858, 5.607 201 C -0.045 226.628, -1.671 260.991, 1.536 287.030 C 10.196 357.364, 47.940 421.458, 105.368 463.352 C 132.560 483.189, 167.874 499.081, 201.066 506.419 C 226.181 511.971, 259.987 513.582, 286.441 510.488 C 349.786 503.078, 410.477 470.394, 451.687 421.500 C 483.128 384.195, 505.455 333.267, 510.283 287.838 C 510.916 281.877, 511.787 277, 512.217 277 C 512.648 277, 512.964 266.988, 512.921 254.750 C 512.878 242.512, 512.566 233.175, 512.229 234 C 511.891 234.825, 511.041 230.441, 510.338 224.258 C 505.304 179.926, 485.352 132.642, 456.219 96 C 446.540 83.825, 428.152 65.440, 416 55.787 C 378.526 26.019, 334.104 7.332, 287.030 1.536 C 271.561 -0.369, 238.774 -0.323, 223.564 1.625 M 196.500 106.871 C 191.265 109.262, 184.430 116.788, 183.081 121.645 C 182.493 123.765, 182.009 132.564, 182.006 141.198 L 182 156.896 141.204 157.198 C 104.262 157.471, 100.155 157.666, 97.725 159.259 C 91.916 163.068, 91.911 163.115, 92.219 208.993 L 92.500 250.963 95.593 254.056 C 97.698 256.160, 100.015 257.326, 102.843 257.706 L 107 258.263 107 319.164 C 107 385.241, 106.937 384.446, 112.514 388.832 L 115.270 391 256.058 391 L 396.847 391 399.894 388.436 C 401.570 387.025, 403.402 384.213, 403.965 382.186 C 404.611 379.861, 404.991 356.303, 404.994 318.382 L 405 258.263 409.157 257.706 C 411.985 257.326, 414.302 256.160, 416.407 254.056 L 419.500 250.963 419.781 208.993 C 420.089 163.115, 420.084 163.068, 414.275 159.259 C 411.845 157.666, 407.738 157.471, 370.796 157.198 L 330 156.896 330 141.314 C 330 123.209, 329.183 119.626, 323.613 113.297 C 316.032 104.685, 318.974 105.044, 256 105.044 C 204.377 105.044, 200.221 105.172, 196.500 106.871 M 204.200 127.200 C 203.379 128.021, 203 132.911, 203 142.700 L 203 157 256 157 L 309 157 309 142.700 C 309 132.911, 308.621 128.021, 307.800 127.200 C 306.070 125.470, 205.930 125.470, 204.200 127.200 M 0.428 256 C 0.428 268.375, 0.571 273.438, 0.747 267.250 C 0.922 261.063, 0.922 250.938, 0.747 244.750 C 0.571 238.563, 0.428 243.625, 0.428 256 M 237 241 C 235.144 242.856, 235 244.333, 235 261.566 C 235 272.451, 235.428 280.932, 236.035 282.066 C 237.003 283.874, 238.308 284, 256 284 C 273.692 284, 274.997 283.874, 275.965 282.066 C 276.572 280.932, 277 272.451, 277 261.566 C 277 237.271, 278.609 239, 256 239 C 240.333 239, 238.843 239.157, 237 241" stroke="none" fill="#f3cb63" fill-rule="evenodd"/><path d="M 196.500 106.871 C 191.265 109.262, 184.430 116.788, 183.081 121.645 C 182.493 123.765, 182.009 132.564, 182.006 141.198 L 182 156.896 141.204 157.198 C 104.262 157.471, 100.155 157.666, 97.725 159.259 C 91.916 163.068, 91.911 163.115, 92.219 208.993 L 92.500 250.963 95.593 254.056 C 97.698 256.160, 100.015 257.326, 102.843 257.706 L 107 258.263 107 319.164 C 107 385.241, 106.937 384.446, 112.514 388.832 L 115.270 391 256.058 391 L 396.847 391 399.894 388.436 C 401.570 387.025, 403.402 384.213, 403.965 382.186 C 404.611 379.861, 404.991 356.303, 404.994 318.382 L 405 258.263 409.157 257.706 C 411.985 257.326, 414.302 256.160, 416.407 254.056 L 419.500 250.963 419.781 208.993 C 420.089 163.115, 420.084 163.068, 414.275 159.259 C 411.845 157.666, 407.738 157.471, 370.796 157.198 L 330 156.896 330 141.314 C 330 123.209, 329.183 119.626, 323.613 113.297 C 316.032 104.685, 318.974 105.044, 256 105.044 C 204.377 105.044, 200.221 105.172, 196.500 106.871 M 204.200 127.200 C 203.379 128.021, 203 132.911, 203 142.700 L 203 157 256 157 L 309 157 309 142.700 C 309 132.911, 308.621 128.021, 307.800 127.200 C 306.070 125.470, 205.930 125.470, 204.200 127.200 M 237 241 C 235.144 242.856, 235 244.333, 235 261.566 C 235 272.451, 235.428 280.932, 236.035 282.066 C 237.003 283.874, 238.308 284, 256 284 C 273.692 284, 274.997 283.874, 275.965 282.066 C 276.572 280.932, 277 272.451, 277 261.566 C 277 237.271, 278.609 239, 256 239 C 240.333 239, 238.843 239.157, 237 241" stroke="none" fill="#616178" fill-rule="evenodd"/></svg>